solid OpenSCAD_Model
  facet normal -1 0 0
    outer loop
      vertex -7.5 7.5 -7.5
      vertex -7.5 5.73223 -4.75
      vertex -7.5 7.5 -4.75
    endloop
  endfacet
  facet normal -1 0 0
    outer loop
      vertex -7.5 5.73223 -4.75
      vertex -7.5 -5.73223 -4.75
      vertex -7.5 5.73223 7.5
    endloop
  endfacet
  facet normal -1 0 0
    outer loop
      vertex -7.5 7.5 -7.5
      vertex -7.5 -5.73223 -4.75
      vertex -7.5 5.73223 -4.75
    endloop
  endfacet
  facet normal -1 0 0
    outer loop
      vertex -7.5 -7.5 -7.5
      vertex -7.5 -5.73223 -4.75
      vertex -7.5 7.5 -7.5
    endloop
  endfacet
  facet normal -1 -0 0
    outer loop
      vertex -7.5 -5.73223 -4.75
      vertex -7.5 -7.5 -7.5
      vertex -7.5 -7.5 -4.75
    endloop
  endfacet
  facet normal -1 -0 0
    outer loop
      vertex -7.5 5.73223 7.5
      vertex -7.5 -5.73223 -4.75
      vertex -7.5 -5.73223 7.5
    endloop
  endfacet
  facet normal 0 0 1
    outer loop
      vertex -7.5 5.73223 7.5
      vertex -7.5 -5.73223 7.5
      vertex -1.76777 0 7.5
    endloop
  endfacet
  facet normal 0 0 1
    outer loop
      vertex 5.73223 7.5 7.5
      vertex -5.73223 7.5 7.5
      vertex 0 1.76777 7.5
    endloop
  endfacet
  facet normal 0 0 1
    outer loop
      vertex 0 -1.76777 7.5
      vertex -5.73223 -7.5 7.5
      vertex 5.73223 -7.5 7.5
    endloop
  endfacet
  facet normal 0 0 1
    outer loop
      vertex 7.5 5.73223 7.5
      vertex 1.76777 0 7.5
      vertex 7.5 -5.73223 7.5
    endloop
  endfacet
  facet normal 1 0 0
    outer loop
      vertex 7.5 5.73223 7.5
      vertex 7.5 -5.73223 7.5
      vertex 7.5 5.73223 -4.75
    endloop
  endfacet
  facet normal 1 -0 0
    outer loop
      vertex 7.5 5.73223 -4.75
      vertex 7.5 7.5 -7.5
      vertex 7.5 7.5 -4.75
    endloop
  endfacet
  facet normal 1 0 0
    outer loop
      vertex 7.5 -5.73223 -4.75
      vertex 7.5 5.73223 -4.75
      vertex 7.5 -5.73223 7.5
    endloop
  endfacet
  facet normal 1 0 0
    outer loop
      vertex 7.5 5.73223 -4.75
      vertex 7.5 -5.73223 -4.75
      vertex 7.5 7.5 -7.5
    endloop
  endfacet
  facet normal 1 0 0
    outer loop
      vertex 7.5 -7.5 -7.5
      vertex 7.5 -5.73223 -4.75
      vertex 7.5 -7.5 -4.75
    endloop
  endfacet
  facet normal 1 0 0
    outer loop
      vertex 7.5 -5.73223 -4.75
      vertex 7.5 -7.5 -7.5
      vertex 7.5 7.5 -7.5
    endloop
  endfacet
  facet normal 0 1 -0
    outer loop
      vertex 7.5 7.5 -7.5
      vertex 5.73223 7.5 -4.75
      vertex 7.5 7.5 -4.75
    endloop
  endfacet
  facet normal 0 1 0
    outer loop
      vertex 5.73223 7.5 -4.75
      vertex 7.5 7.5 -7.5
      vertex -5.73223 7.5 -4.75
    endloop
  endfacet
  facet normal 0 1 0
    outer loop
      vertex -7.5 7.5 -7.5
      vertex -5.73223 7.5 -4.75
      vertex 7.5 7.5 -7.5
    endloop
  endfacet
  facet normal 0 1 0
    outer loop
      vertex -5.73223 7.5 -4.75
      vertex -7.5 7.5 -7.5
      vertex -7.5 7.5 -4.75
    endloop
  endfacet
  facet normal 0 1 -0
    outer loop
      vertex 5.73223 7.5 -4.75
      vertex -5.73223 7.5 7.5
      vertex 5.73223 7.5 7.5
    endloop
  endfacet
  facet normal 0 1 0
    outer loop
      vertex -5.73223 7.5 7.5
      vertex 5.73223 7.5 -4.75
      vertex -5.73223 7.5 -4.75
    endloop
  endfacet
  facet normal 0 0 -1
    outer loop
      vertex -7.5 -7.5 -7.5
      vertex 7.5 7.5 -7.5
      vertex 7.5 -7.5 -7.5
    endloop
  endfacet
  facet normal -0 0 -1
    outer loop
      vertex 7.5 7.5 -7.5
      vertex -7.5 -7.5 -7.5
      vertex -7.5 7.5 -7.5
    endloop
  endfacet
  facet normal 0 -1 0
    outer loop
      vertex -7.5 -7.5 -7.5
      vertex -5.73223 -7.5 -4.75
      vertex -7.5 -7.5 -4.75
    endloop
  endfacet
  facet normal 0 -1 -0
    outer loop
      vertex -5.73223 -7.5 -4.75
      vertex -7.5 -7.5 -7.5
      vertex 5.73223 -7.5 -4.75
    endloop
  endfacet
  facet normal 0 -1 0
    outer loop
      vertex 7.5 -7.5 -7.5
      vertex 5.73223 -7.5 -4.75
      vertex -7.5 -7.5 -7.5
    endloop
  endfacet
  facet normal 0 -1 0
    outer loop
      vertex 5.73223 -7.5 -4.75
      vertex 7.5 -7.5 -7.5
      vertex 7.5 -7.5 -4.75
    endloop
  endfacet
  facet normal 0 -1 0
    outer loop
      vertex -5.73223 -7.5 -4.75
      vertex 5.73223 -7.5 7.5
      vertex -5.73223 -7.5 7.5
    endloop
  endfacet
  facet normal 0 -1 -0
    outer loop
      vertex 5.73223 -7.5 7.5
      vertex -5.73223 -7.5 -4.75
      vertex 5.73223 -7.5 -4.75
    endloop
  endfacet
  facet normal -0 0 1
    outer loop
      vertex 5.73223 7.5 -4.75
      vertex 7.5 5.73223 -4.75
      vertex 7.5 7.5 -4.75
    endloop
  endfacet
  facet normal 0 0 1
    outer loop
      vertex 5.73223 7.5 -4.75
      vertex 1.76777 0 -4.75
      vertex 7.5 5.73223 -4.75
    endloop
  endfacet
  facet normal 0 -0 1
    outer loop
      vertex 1.76777 0 -4.75
      vertex 5.73223 7.5 -4.75
      vertex 0 1.76777 -4.75
    endloop
  endfacet
  facet normal 0 0 1
    outer loop
      vertex 7.5 -5.73223 -4.75
      vertex 5.73223 -7.5 -4.75
      vertex 7.5 -7.5 -4.75
    endloop
  endfacet
  facet normal 0 0 1
    outer loop
      vertex 1.76777 0 -4.75
      vertex 5.73223 -7.5 -4.75
      vertex 7.5 -5.73223 -4.75
    endloop
  endfacet
  facet normal 0 0 1
    outer loop
      vertex 0 -1.76777 -4.75
      vertex 1.76777 0 -4.75
      vertex 0 1.76777 -4.75
    endloop
  endfacet
  facet normal 0 0 1
    outer loop
      vertex 1.76777 0 -4.75
      vertex 0 -1.76777 -4.75
      vertex 5.73223 -7.5 -4.75
    endloop
  endfacet
  facet normal 0 0 1
    outer loop
      vertex 0 1.76777 -4.75
      vertex -1.76777 0 -4.75
      vertex 0 -1.76777 -4.75
    endloop
  endfacet
  facet normal 0 0 1
    outer loop
      vertex -5.73223 7.5 -4.75
      vertex -1.76777 0 -4.75
      vertex 0 1.76777 -4.75
    endloop
  endfacet
  facet normal 0 0 1
    outer loop
      vertex -7.5 5.73223 -4.75
      vertex -5.73223 7.5 -4.75
      vertex -7.5 7.5 -4.75
    endloop
  endfacet
  facet normal 0 0 1
    outer loop
      vertex -5.73223 7.5 -4.75
      vertex -7.5 5.73223 -4.75
      vertex -1.76777 0 -4.75
    endloop
  endfacet
  facet normal 0 0 1
    outer loop
      vertex -1.76777 0 -4.75
      vertex -5.73223 -7.5 -4.75
      vertex 0 -1.76777 -4.75
    endloop
  endfacet
  facet normal -0 0 1
    outer loop
      vertex -7.5 -5.73223 -4.75
      vertex -5.73223 -7.5 -4.75
      vertex -1.76777 0 -4.75
    endloop
  endfacet
  facet normal 0 0 1
    outer loop
      vertex -5.73223 -7.5 -4.75
      vertex -7.5 -5.73223 -4.75
      vertex -7.5 -7.5 -4.75
    endloop
  endfacet
  facet normal -0.707107 0.707107 0
    outer loop
      vertex -5.73223 -7.5 -4.75
      vertex 0 -1.76777 7.5
      vertex 0 -1.76777 -4.75
    endloop
  endfacet
  facet normal -0.707107 0.707107 0
    outer loop
      vertex 0 -1.76777 7.5
      vertex -5.73223 -7.5 -4.75
      vertex -5.73223 -7.5 7.5
    endloop
  endfacet
  facet normal -0.707107 0.707107 0
    outer loop
      vertex 1.76777 0 -4.75
      vertex 7.5 5.73223 7.5
      vertex 7.5 5.73223 -4.75
    endloop
  endfacet
  facet normal -0.707107 0.707107 0
    outer loop
      vertex 7.5 5.73223 7.5
      vertex 1.76777 0 -4.75
      vertex 1.76777 0 7.5
    endloop
  endfacet
  facet normal 0.707107 -0.707107 0
    outer loop
      vertex -7.5 -5.73223 7.5
      vertex -1.76777 0 -4.75
      vertex -1.76777 0 7.5
    endloop
  endfacet
  facet normal 0.707107 -0.707107 0
    outer loop
      vertex -1.76777 0 -4.75
      vertex -7.5 -5.73223 7.5
      vertex -7.5 -5.73223 -4.75
    endloop
  endfacet
  facet normal 0.707107 -0.707107 0
    outer loop
      vertex 0 1.76777 7.5
      vertex 5.73223 7.5 -4.75
      vertex 5.73223 7.5 7.5
    endloop
  endfacet
  facet normal 0.707107 -0.707107 0
    outer loop
      vertex 5.73223 7.5 -4.75
      vertex 0 1.76777 7.5
      vertex 0 1.76777 -4.75
    endloop
  endfacet
  facet normal -0.707107 -0.707107 0
    outer loop
      vertex 0 1.76777 -4.75
      vertex -5.73223 7.5 7.5
      vertex -5.73223 7.5 -4.75
    endloop
  endfacet
  facet normal -0.707107 -0.707107 0
    outer loop
      vertex -5.73223 7.5 7.5
      vertex 0 1.76777 -4.75
      vertex 0 1.76777 7.5
    endloop
  endfacet
  facet normal -0.707107 -0.707107 0
    outer loop
      vertex 7.5 -5.73223 -4.75
      vertex 1.76777 0 7.5
      vertex 1.76777 0 -4.75
    endloop
  endfacet
  facet normal -0.707107 -0.707107 0
    outer loop
      vertex 1.76777 0 7.5
      vertex 7.5 -5.73223 -4.75
      vertex 7.5 -5.73223 7.5
    endloop
  endfacet
  facet normal 0.707107 0.707107 0
    outer loop
      vertex -1.76777 0 7.5
      vertex -7.5 5.73223 -4.75
      vertex -7.5 5.73223 7.5
    endloop
  endfacet
  facet normal 0.707107 0.707107 0
    outer loop
      vertex -7.5 5.73223 -4.75
      vertex -1.76777 0 7.5
      vertex -1.76777 0 -4.75
    endloop
  endfacet
  facet normal 0.707107 0.707107 0
    outer loop
      vertex 5.73223 -7.5 7.5
      vertex 0 -1.76777 -4.75
      vertex 0 -1.76777 7.5
    endloop
  endfacet
  facet normal 0.707107 0.707107 0
    outer loop
      vertex 0 -1.76777 -4.75
      vertex 5.73223 -7.5 7.5
      vertex 5.73223 -7.5 -4.75
    endloop
  endfacet
endsolid OpenSCAD_Model
