solid OpenSCAD_Model
  facet normal -1 0 0
    outer loop
      vertex -10 10 -6.25
      vertex -10 7.63119 -2.5
      vertex -10 10 -2.5
    endloop
  endfacet
  facet normal -1 0 0
    outer loop
      vertex -10 7.63119 -2.5
      vertex -10 -7.63119 -2.5
      vertex -10 7.63119 6.25
    endloop
  endfacet
  facet normal -1 0 0
    outer loop
      vertex -10 10 -6.25
      vertex -10 -7.63119 -2.5
      vertex -10 7.63119 -2.5
    endloop
  endfacet
  facet normal -1 0 0
    outer loop
      vertex -10 -10 -6.25
      vertex -10 -7.63119 -2.5
      vertex -10 10 -6.25
    endloop
  endfacet
  facet normal -1 -0 0
    outer loop
      vertex -10 -7.63119 -2.5
      vertex -10 -10 -6.25
      vertex -10 -10 -2.5
    endloop
  endfacet
  facet normal -1 -0 0
    outer loop
      vertex -10 7.63119 6.25
      vertex -10 -7.63119 -2.5
      vertex -10 -7.63119 6.25
    endloop
  endfacet
  facet normal 0 0 1
    outer loop
      vertex -10 7.63119 6.25
      vertex -10 -7.63119 6.25
      vertex -2.36881 0 6.25
    endloop
  endfacet
  facet normal 0 0 1
    outer loop
      vertex 7.63119 10 6.25
      vertex -7.63119 10 6.25
      vertex 0 2.36881 6.25
    endloop
  endfacet
  facet normal 0 0 1
    outer loop
      vertex 0 -2.36881 6.25
      vertex -7.63119 -10 6.25
      vertex 7.63119 -10 6.25
    endloop
  endfacet
  facet normal 0 0 1
    outer loop
      vertex 10 7.63119 6.25
      vertex 2.36881 0 6.25
      vertex 10 -7.63119 6.25
    endloop
  endfacet
  facet normal 1 0 0
    outer loop
      vertex 10 7.63119 6.25
      vertex 10 -7.63119 6.25
      vertex 10 7.63119 -2.5
    endloop
  endfacet
  facet normal 1 -0 0
    outer loop
      vertex 10 7.63119 -2.5
      vertex 10 10 -6.25
      vertex 10 10 -2.5
    endloop
  endfacet
  facet normal 1 0 0
    outer loop
      vertex 10 -7.63119 -2.5
      vertex 10 7.63119 -2.5
      vertex 10 -7.63119 6.25
    endloop
  endfacet
  facet normal 1 0 0
    outer loop
      vertex 10 7.63119 -2.5
      vertex 10 -7.63119 -2.5
      vertex 10 10 -6.25
    endloop
  endfacet
  facet normal 1 0 0
    outer loop
      vertex 10 -10 -6.25
      vertex 10 -7.63119 -2.5
      vertex 10 -10 -2.5
    endloop
  endfacet
  facet normal 1 0 0
    outer loop
      vertex 10 -7.63119 -2.5
      vertex 10 -10 -6.25
      vertex 10 10 -6.25
    endloop
  endfacet
  facet normal 0 1 -0
    outer loop
      vertex 10 10 -6.25
      vertex 7.63119 10 -2.5
      vertex 10 10 -2.5
    endloop
  endfacet
  facet normal 0 1 0
    outer loop
      vertex 7.63119 10 -2.5
      vertex 10 10 -6.25
      vertex -7.63119 10 -2.5
    endloop
  endfacet
  facet normal 0 1 0
    outer loop
      vertex -10 10 -6.25
      vertex -7.63119 10 -2.5
      vertex 10 10 -6.25
    endloop
  endfacet
  facet normal 0 1 0
    outer loop
      vertex -7.63119 10 -2.5
      vertex -10 10 -6.25
      vertex -10 10 -2.5
    endloop
  endfacet
  facet normal 0 1 -0
    outer loop
      vertex 7.63119 10 -2.5
      vertex -7.63119 10 6.25
      vertex 7.63119 10 6.25
    endloop
  endfacet
  facet normal 0 1 0
    outer loop
      vertex -7.63119 10 6.25
      vertex 7.63119 10 -2.5
      vertex -7.63119 10 -2.5
    endloop
  endfacet
  facet normal 0 0 -1
    outer loop
      vertex -10 -10 -6.25
      vertex 10 10 -6.25
      vertex 10 -10 -6.25
    endloop
  endfacet
  facet normal -0 0 -1
    outer loop
      vertex 10 10 -6.25
      vertex -10 -10 -6.25
      vertex -10 10 -6.25
    endloop
  endfacet
  facet normal 0 -1 0
    outer loop
      vertex -10 -10 -6.25
      vertex -7.63119 -10 -2.5
      vertex -10 -10 -2.5
    endloop
  endfacet
  facet normal 0 -1 -0
    outer loop
      vertex -7.63119 -10 -2.5
      vertex -10 -10 -6.25
      vertex 7.63119 -10 -2.5
    endloop
  endfacet
  facet normal 0 -1 0
    outer loop
      vertex 10 -10 -6.25
      vertex 7.63119 -10 -2.5
      vertex -10 -10 -6.25
    endloop
  endfacet
  facet normal 0 -1 0
    outer loop
      vertex 7.63119 -10 -2.5
      vertex 10 -10 -6.25
      vertex 10 -10 -2.5
    endloop
  endfacet
  facet normal 0 -1 0
    outer loop
      vertex -7.63119 -10 -2.5
      vertex 7.63119 -10 6.25
      vertex -7.63119 -10 6.25
    endloop
  endfacet
  facet normal 0 -1 -0
    outer loop
      vertex 7.63119 -10 6.25
      vertex -7.63119 -10 -2.5
      vertex 7.63119 -10 -2.5
    endloop
  endfacet
  facet normal -0 0 1
    outer loop
      vertex 7.63119 10 -2.5
      vertex 10 7.63119 -2.5
      vertex 10 10 -2.5
    endloop
  endfacet
  facet normal 0 0 1
    outer loop
      vertex 7.63119 10 -2.5
      vertex 2.36881 0 -2.5
      vertex 10 7.63119 -2.5
    endloop
  endfacet
  facet normal 0 -0 1
    outer loop
      vertex 2.36881 0 -2.5
      vertex 7.63119 10 -2.5
      vertex 0 2.36881 -2.5
    endloop
  endfacet
  facet normal 0 0 1
    outer loop
      vertex 10 -7.63119 -2.5
      vertex 7.63119 -10 -2.5
      vertex 10 -10 -2.5
    endloop
  endfacet
  facet normal 0 0 1
    outer loop
      vertex 2.36881 0 -2.5
      vertex 7.63119 -10 -2.5
      vertex 10 -7.63119 -2.5
    endloop
  endfacet
  facet normal 0 0 1
    outer loop
      vertex 0 -2.36881 -2.5
      vertex 2.36881 0 -2.5
      vertex 0 2.36881 -2.5
    endloop
  endfacet
  facet normal 0 0 1
    outer loop
      vertex 2.36881 0 -2.5
      vertex 0 -2.36881 -2.5
      vertex 7.63119 -10 -2.5
    endloop
  endfacet
  facet normal 0 0 1
    outer loop
      vertex 0 2.36881 -2.5
      vertex -2.36881 0 -2.5
      vertex 0 -2.36881 -2.5
    endloop
  endfacet
  facet normal 0 0 1
    outer loop
      vertex -7.63119 10 -2.5
      vertex -2.36881 0 -2.5
      vertex 0 2.36881 -2.5
    endloop
  endfacet
  facet normal 0 0 1
    outer loop
      vertex -10 7.63119 -2.5
      vertex -7.63119 10 -2.5
      vertex -10 10 -2.5
    endloop
  endfacet
  facet normal 0 0 1
    outer loop
      vertex -7.63119 10 -2.5
      vertex -10 7.63119 -2.5
      vertex -2.36881 0 -2.5
    endloop
  endfacet
  facet normal 0 0 1
    outer loop
      vertex -2.36881 0 -2.5
      vertex -7.63119 -10 -2.5
      vertex 0 -2.36881 -2.5
    endloop
  endfacet
  facet normal -0 0 1
    outer loop
      vertex -10 -7.63119 -2.5
      vertex -7.63119 -10 -2.5
      vertex -2.36881 0 -2.5
    endloop
  endfacet
  facet normal 0 0 1
    outer loop
      vertex -7.63119 -10 -2.5
      vertex -10 -7.63119 -2.5
      vertex -10 -10 -2.5
    endloop
  endfacet
  facet normal -0.707107 0.707107 0
    outer loop
      vertex -7.63119 -10 -2.5
      vertex 0 -2.36881 6.25
      vertex 0 -2.36881 -2.5
    endloop
  endfacet
  facet normal -0.707107 0.707107 0
    outer loop
      vertex 0 -2.36881 6.25
      vertex -7.63119 -10 -2.5
      vertex -7.63119 -10 6.25
    endloop
  endfacet
  facet normal -0.707107 0.707107 0
    outer loop
      vertex 2.36881 0 -2.5
      vertex 10 7.63119 6.25
      vertex 10 7.63119 -2.5
    endloop
  endfacet
  facet normal -0.707107 0.707107 0
    outer loop
      vertex 10 7.63119 6.25
      vertex 2.36881 0 -2.5
      vertex 2.36881 0 6.25
    endloop
  endfacet
  facet normal 0.707107 -0.707107 0
    outer loop
      vertex -10 -7.63119 6.25
      vertex -2.36881 0 -2.5
      vertex -2.36881 0 6.25
    endloop
  endfacet
  facet normal 0.707107 -0.707107 0
    outer loop
      vertex -2.36881 0 -2.5
      vertex -10 -7.63119 6.25
      vertex -10 -7.63119 -2.5
    endloop
  endfacet
  facet normal 0.707107 -0.707107 0
    outer loop
      vertex 0 2.36881 6.25
      vertex 7.63119 10 -2.5
      vertex 7.63119 10 6.25
    endloop
  endfacet
  facet normal 0.707107 -0.707107 0
    outer loop
      vertex 7.63119 10 -2.5
      vertex 0 2.36881 6.25
      vertex 0 2.36881 -2.5
    endloop
  endfacet
  facet normal -0.707107 -0.707107 0
    outer loop
      vertex 0 2.36881 -2.5
      vertex -7.63119 10 6.25
      vertex -7.63119 10 -2.5
    endloop
  endfacet
  facet normal -0.707107 -0.707107 0
    outer loop
      vertex -7.63119 10 6.25
      vertex 0 2.36881 -2.5
      vertex 0 2.36881 6.25
    endloop
  endfacet
  facet normal -0.707107 -0.707107 0
    outer loop
      vertex 10 -7.63119 -2.5
      vertex 2.36881 0 6.25
      vertex 2.36881 0 -2.5
    endloop
  endfacet
  facet normal -0.707107 -0.707107 0
    outer loop
      vertex 2.36881 0 6.25
      vertex 10 -7.63119 -2.5
      vertex 10 -7.63119 6.25
    endloop
  endfacet
  facet normal 0.707107 0.707107 0
    outer loop
      vertex -2.36881 0 6.25
      vertex -10 7.63119 -2.5
      vertex -10 7.63119 6.25
    endloop
  endfacet
  facet normal 0.707107 0.707107 0
    outer loop
      vertex -10 7.63119 -2.5
      vertex -2.36881 0 6.25
      vertex -2.36881 0 -2.5
    endloop
  endfacet
  facet normal 0.707107 0.707107 0
    outer loop
      vertex 7.63119 -10 6.25
      vertex 0 -2.36881 -2.5
      vertex 0 -2.36881 6.25
    endloop
  endfacet
  facet normal 0.707107 0.707107 0
    outer loop
      vertex 0 -2.36881 -2.5
      vertex 7.63119 -10 6.25
      vertex 7.63119 -10 -2.5
    endloop
  endfacet
endsolid OpenSCAD_Model
